<svg width="24" height="24" viewBox="0 0 24 24" fill="none" xmlns="http://www.w3.org/2000/svg">
<path d="M21 16V8C20.9996 7.64927 20.9044 7.30481 20.725 7.00532C20.5456 6.70583 20.2887 6.46244 19.982 6.302L12.982 2.302C12.6787 2.12881 12.3404 2.03789 12 2.03789C11.6596 2.03789 11.3213 2.12881 11.018 2.302L4.018 6.302C3.71129 6.46244 3.45437 6.70583 3.27498 7.00532C3.09559 7.30481 3.00036 7.64927 3 8V16C3.00036 16.3507 3.09559 16.6952 3.27498 16.9947C3.45437 17.2942 3.71129 17.5376 4.018 17.698L11.018 21.698C11.3213 21.8712 11.6596 21.9621 12 21.9621C12.3404 21.9621 12.6787 21.8712 12.982 21.698L19.982 17.698C20.2887 17.5376 20.5456 17.2942 20.725 16.9947C20.9044 16.6952 20.9996 16.3507 21 16Z" stroke="#EDEDED" stroke-width="2" stroke-linecap="round" stroke-linejoin="round"/>
<path d="M3.27 6.96L12 12.01L20.73 6.96" stroke="#EDEDED" stroke-width="2" stroke-linecap="round" stroke-linejoin="round"/>
<path d="M12 22.08V12" stroke="#EDEDED" stroke-width="2" stroke-linecap="round" stroke-linejoin="round"/>
</svg>
