<svg width="24" height="24" viewBox="0 0 24 24" fill="none" xmlns="http://www.w3.org/2000/svg">
<path d="M4 14.8995C3.4283 14.5029 3.0189 13.9114 2.8554 13.2428C2.6919 12.5742 2.78652 11.8778 3.12028 11.2917C3.45404 10.7056 3.99981 10.2736 4.64834 10.0827C5.29687 9.89182 5.99899 9.95627 6.612 10.263" stroke="#EDEDED" stroke-width="2" stroke-linecap="round" stroke-linejoin="round"/>
<path d="M4 14.8995C4.58045 15.6596 5.38541 16.208 6.29955 16.4674C7.2137 16.7268 8.19069 16.6841 9.092 16.345" stroke="#EDEDED" stroke-width="2" stroke-linecap="round" stroke-linejoin="round"/>
<path d="M20 14.8995C20.5717 14.5029 20.9811 13.9114 21.1446 13.2428C21.3081 12.5742 21.2135 11.8778 20.8797 11.2917C20.546 10.7056 20.0002 10.2736 19.3517 10.0827C18.7031 9.89182 18.001 9.95627 17.388 10.263" stroke="#EDEDED" stroke-width="2" stroke-linecap="round" stroke-linejoin="round"/>
<path d="M20 14.8995C19.4196 15.6596 18.6146 16.208 17.7005 16.4674C16.7863 16.7268 15.8093 16.6841 14.908 16.345" stroke="#EDEDED" stroke-width="2" stroke-linecap="round" stroke-linejoin="round"/>
<path d="M12 16V8" stroke="#EDEDED" stroke-width="2" stroke-linecap="round" stroke-linejoin="round"/>
<path d="M9 11L12 8L15 11" stroke="#EDEDED" stroke-width="2" stroke-linecap="round" stroke-linejoin="round"/>
</svg>
