<?xml version="1.0" encoding="UTF-8"?>
<svg id="_Слой_1" data-name="Слой_1" xmlns="http://www.w3.org/2000/svg" version="1.1" viewBox="0 0 680.3 737">
  <!-- Generator: Adobe Illustrator 29.1.0, SVG Export Plug-In . SVG Version: 2.1.0 Build 142)  -->
  <defs>
    <style>
      .st0 {
        fill: #fff;
      }
    </style>
  </defs>
  <g>
    <path class="st0" d="M306.4,569.3c-1.1-.5-2.4-.6-3.6-.8-4.1-.6-8.1-1.8-11.7-3.8-1.8-1-3.5-2.3-4.9-3.8-1.1-1.2-2-2.5-2.6-4-.5-1.1-.8-2.3-.8-3.6-.2-3.2.3-6.3,1.6-9.2,1.4-3.2,3.2-6.3,5.4-9.1,1.5-1.9,3.1-3.8,4.7-5.6,2.1-2.4,4.5-4.4,7.1-6.2.7-.5,1.4-.9,2.2-1.3,2.8-1.5,5.8-2.8,8.8-3.9,3.7-1.4,7.3-2.7,10.9-4.3,3.1-1.4,6.2-2.8,9.2-4.1,3.2-1.4,6.6-2.6,10.1-3.2.5-.1,1.1-.2,1.6-.2h5.3c1.4.1,2.7.4,4,.8,2,.7,3.1,2.1,3.3,4.2.2,1.5.1,3.1-.2,4.6-.4,1.8-.8,3.6-1.2,5.4-.3,1.3-.6,2.5-.9,3.8s-.4,2.6-.4,3.9c0,2.3,0,4.6.4,6.9.3,1.7.4,3.5.5,5.3.2,2.2-.1,4.3-.6,6.4-.7,3.3-2.4,6.1-4.7,8.6-2.5,2.7-5.4,4.8-8.6,6.5-5,2.7-10.2,4.5-15.8,5.6-1.7.3-3.3.6-5,.9-.4.1-.9.2-1.3.4-4.3-.2-8.5-.2-12.8-.2Z"/>
    <path class="st0" d="M48.7,157.6c.5.2,1,.4,1.5.5,1.8.6,3.6,1.4,5.2,2.4,2.2,1.3,4.2,2.8,6.1,4.5,4.8,4.5,9.2,9.2,13.1,14.5,2.4,3.2,4.5,6.6,6.4,10.1,1.9,3.6,3.4,7.4,4.3,11.4.7,2.7.9,5.5.7,8.2-.3,4.4-2.1,8.3-5,11.6-2.4,2.7-5.2,4.7-8.4,6.3-1.9.9-3.9,1.4-5.9,1.9-1.3.3-2.7.6-4.1.6s-.9.1-1.4.1-.8.1-1.1.1c-3.5-.1-7-.3-10.4-1.6-1.7-.6-3.2-1.5-4.6-2.6-3.7-3-5.1-7-4.6-11.6.2-2.1.6-4.1.9-6.1.1-.8.2-1.7.3-2.5.1-.5,0-1.1.1-1.6.3-1.7.3-3.4.3-5,0-3.2-.4-6.3-1.4-9.3-.7-2.2-1.5-4.4-2.2-6.5-1-2.7-1.8-5.4-2.3-8.2-.1-.7-.3-1.3-.8-1.9v-5.1c.4-.5.7-1,.8-1.6.2-1,.6-1.9,1.1-2.8,1.3-2.4,3.1-4.2,5.6-5.2.4-.2.8-.4,1.3-.5,1.5,0,3,0,4.5,0Z"/>
    <path class="st0" d="M369.2,215.5h7.1c1.5,0,2.9,0,4.4.3.5.1,1.1.1,1.6.1,1.5,0,2.9.3,4.3.6,3.5.8,6.1,2.7,7.9,5.9,1.1,1.9,1.7,3.9,2.1,6.1.8,4.2.8,8.4.4,12.6-.4,4.2-1.4,8.3-3,12.3-.9,2.3-1.9,4.5-3,6.7-1.7,3.4-3.4,6.7-5.1,10-1.4,2.9-2.6,5.9-3.3,9.1-.4,2-.7,3.9-.8,5.9-.1,3.6-.1,7.2.1,10.8.1,2,.3,4,.6,5.9.6,4.9,1.3,9.7,2.2,14.5.7,3.8,1.6,7.5,2.6,11.2,1,3.5,1.9,7.1,2.6,10.7.5,2.8.8,5.6.7,8.5-.1,2.1-.6,4.1-1.4,6-.6,1.3-1.4,2.4-2.5,3.3-1,.9-2.1,1.4-3.5,1.5-2.8.3-5.5.3-8.3.3s-1.2,0-1.8-.1c-2-.3-4-.2-6-.3-.8,0-1.5-.1-2.3-.2s-1.5-.2-2.3-.2c-4-.5-8.1-1-11.9-2.2-.5-.2-1-.3-1.5-.5-3.7-1.4-6.2-3.9-7.5-7.6-.8-2.2-1.3-4.4-1.3-6.7s-.1-2-.2-3v-1.1c.1-1.8.2-3.5.2-5.3s0-.9.1-1.4c.4-3.7.8-7.3,1.2-11,.1-.6.1-1.2.1-1.8s0-1.2.1-1.8c.4-2.2.3-4.4.4-6.6,0-1.1.1-2.3.2-3.4.2-3,.2-6,0-9,0-.5-.1-.9-.1-1.4,0-2.8-.4-5.7-.6-8.5-.1-1.6-.3-3.2-.6-4.8-.7-4.6-1.4-9.1-2-13.6-.6-3.9-1.1-7.7-1.6-11.6-.4-3.3-.7-6.7-1-10.1-.3-3-.3-6-.3-9s.4-5.5,1-8.2c.4-1.6.9-3.2,1.7-4.7.6-1.1,1.3-2.1,2.1-3,1.9-2.2,4.4-3.5,7.3-4.1,1.7-.3,3.3-.5,5-.5s3.8-.1,5.7-.2c2.4-.2,4.7-.1,7.1-.2,1.1-.3,2.1-.2,3.1-.2h0Z"/>
    <path class="st0" d="M210.5,377.6c-2.3,0-4,0-5.7-.4-2.1-.4-3.9-1.3-5.4-2.8-1.8-1.7-3.3-3.6-4.7-5.7-2.5-3.9-4.4-8.1-5.9-12.4-1.7-4.6-3-9.3-4.5-14-1.2-4-2.6-8-4.3-11.9-1-2.2-2.1-4.2-3.4-6.3-1.9-2.9-4-5.6-6.2-8.2-2.6-3.1-5.1-6.1-7.5-9.3-2.4-3.4-4.6-6.9-6.4-10.6-1.9-3.8-3.1-7.8-3.7-12-.4-3.1-.3-6.3.5-9.3,1.1-4.1,3.5-7.3,7.2-9.4,2.1-1.2,4.3-1.9,6.7-2.4,1.5-.3,3-.6,4.5-.8,3-.4,5.9-1.1,8.8-1.7,2-.4,4.1-.9,6.1-1.1,2.8-.3,5.7-.4,8.5.3,2.4.6,4.6,1.6,6.5,3.3,2,1.8,3.8,3.8,5.2,6.1,1.4,2.4,2.4,5,2.9,7.7.8,4.4,1.6,8.7,2.4,13.1,1,5.3,2.1,10.5,3.7,15.7,1.4,4.5,3.4,8.7,5.8,12.8,2,3.4,4.1,6.6,6.3,9.9,3.2,4.7,6.5,9.3,9.4,14.2,1.6,2.6,3,5.4,4.2,8.2.7,1.5,1.2,3.1,1.7,4.8.6,2,.8,4.1.7,6.1-.1,2.1-.9,3.9-2.3,5.4-1.3,1.4-2.8,2.6-4.6,3.4-1.9.9-3.9,1.8-5.9,2.7-4.5,1.9-9.1,3.3-13.8,4.2-2.4,0-4.9.5-6.8.4Z"/>
    <path class="st0" d="M260.7,322.1v-11.3c0-4.2-.8-8.2-2.5-12-.8-1.7-1.6-3.5-2.4-5.2-3.2-6.9-6.2-13.8-8.7-21-1.4-4-2.5-8.1-3.2-12.2-.4-2.3-.7-4.7-.6-7.1.1-2.5.5-4.9,1.3-7.2,1.3-3.7,3.7-6.5,6.9-8.6,2.5-1.7,5.3-2.7,8.2-3.5,3-.8,6-1.3,9-1.5,2.2-.2,4.4-.5,6.6-.7.2,0,.3,0,.5-.1,2.6-.2,5.2-.3,7.8-.5,2.5-.1,4.9.2,7.3.5,1.1.1,2.1.4,3.1.7,2.2.6,4,1.9,5.5,3.6.8.9,1.3,1.9,1.6,3,.5,1.8.8,3.6.5,5.5-.3,1.8-.5,3.6-.9,5.4-.8,4.4-1.5,8.8-2,13.2-.3,2.4-.7,4.9-.7,7.3s0,.6-.1.9c-.5,3.7-.4,7.5-.3,11.2.3,6.9,1.3,13.7,3.6,20.3.9,2.5,1.7,5.1,2.4,7.7,1.2,3.9,1.7,7.9,1.7,12s.1,4.4,0,6.7c-.1,5.9-2,11.3-5.4,16.1-2.4,3.2-5.1,6.1-8.4,8.4-1.2.9-2.3,1.7-3.6,2.5-1.2.8-2.4,1.4-3.6,2.1-.7.4-1.5.8-2.2,1.2-2,1.2-4.2,1.9-6.5,2.3-1.7.3-3.4.2-5-.5-1.3-.5-2.3-1.4-3.2-2.5-2.5-3-4.1-6.5-5-10.2-.8-3.1-1.3-6.3-1.6-9.5-.3-5.7,0-11.4,0-17Z"/>
    <path class="st0" d="M294.5,508.3h-5.3c-2.1,0-4.3-.1-6.4-.4-2.4-.2-4.7-.6-7-1.1-2.6-.5-5.2-1.4-7.6-2.5-3.3-1.6-5.8-4-7.7-7-1.1-1.8-2.1-3.6-2.9-5.5-3-6.5-6.8-12.4-11.3-17.8-4.3-5.2-9.1-10-14.5-14-5.2-3.9-10.9-7.1-17.2-9.1-2.7-.9-5.5-1.5-8.3-1.9-.7-.1-1.4-.1-2.1-.2-1.4-.1-2.9-.3-4.3-.5-.5-.1-.9-.6-.9-1.2.1-.8.4-1.5.7-2.2,1.1-2.4,2.4-4.6,3.8-6.8,2.2-3.5,4.7-6.8,7.5-9.9.9-1,1.8-2.1,2.8-3.1,1-1.1,2.2-1.9,3.4-2.7,1.6-.9,3.4-1.4,5.2-1.6,3.4-.3,6.5.8,9.3,2.7,2.5,1.8,4.7,3.9,6.8,6.2.9,1,1.8,2.1,2.8,3.1,4,4.2,7.9,8.6,11.6,13.1,2.3,2.8,4.5,5.8,6.7,8.8,1.9,2.6,3.5,5.4,5.2,8.1.1.1.3.1.4.1,0,0,.1-.1.1-.2-.6-6-1.6-11.8-3.6-17.5-.6-1.7-1.3-3.4-2.2-5-.6-1-1.1-2-1.6-3.1-.3-.7-.6-1.4-.8-2.1-.2-.8.1-1.5.9-1.9s2-.7,3.1-.5c1.7.3,3.3.7,4.8,1.4,2.7,1.3,5.3,2.8,7.7,4.6,2.5,1.8,4.9,3.7,7.4,5.5,2.4,1.8,4.9,3.4,7.5,4.8.1.1.3,0,.4,0,.1-.1.1-.3,0-.4,0-.1-.1-.3-.2-.4-2.4-4.7-4.7-9.5-7.4-14-2.4-3.9-5-7.7-8.2-11.1-1.8-1.9-3.5-3.8-5.5-5.5-.3-.3-.7-.6-1-1-.5-.6-.3-1.4.3-1.8.2-.1.4-.2.6-.3,2.2-1,4.5-1.9,6.9-2.4,4.2-.8,7.9,0,11.2,2.8,1.7,1.4,3.3,3,4.8,4.7,3.5,4,6.6,8.2,9.6,12.6,3.1,4.6,6,9.3,8.6,14.1,1.5,2.8,2.9,5.6,4.1,8.5,1,2.5,1.5,5.1,1.8,7.8.1,1.3-.1,2.6-.4,3.9-.3,1.8-.9,3.6-1.8,5.2-.8,1.5-1.9,2.8-3.2,3.9-1.4,1.2-3.1,1.9-5,2.2-.7.1-1.4,0-2.1-.1-1.7-.2-3.3-.8-4.8-1.5-2.2-1-4.2-2.2-6.2-3.6-1.3-.9-2.6-1.9-3.9-2.8-2.4-1.7-4.8-3.3-7.4-4.7-.3-.2-.6.1-.6.4v.2c.2,2.5.5,5,.7,7.5.2,1.9.4,3.8.6,5.7.1,1.1.3,2.1.5,3.2.1.6.5.9,1.1.9s.9,0,1.4.1c1.9.2,3.8.3,5.7.6,2.3.3,4.5.8,6.8,1.3,7.9,2,15.7,4.2,23.4,6.7,3.6,1.2,7.3,2.4,10.8,3.8,1.4.6,2.8,1.2,4.2,1.9.7.4,1.4.9,2.1,1.4.3.2.5.5.7.9.4.6.3,1.5-.2,1.9-.3.3-.7.6-1.1.8-1.2.7-2.5,1.1-3.8,1.6-2.6.8-5.3,1.4-8.1,1.8-3.1.5-6.2.9-9.3,1.3-2.4.3-4.9.4-7.3.6h-.9c-3.7.5-7.5.4-11.3.4,0,.3-.3.3-.6.3h0Z"/>
    <path class="st0" d="M463.7,474.2v4.1c0,2.3-.3,4.6-.8,6.8-.1.3-.1.6-.3.9-.2.4-.5.7-.8.7-.6.1-1.2.2-1.8.1-1.8-.2-3.5-.2-5.3-.2s-3.5-.1-5.3-.4c-1.7-.2-3.4-.3-5-.6-1.5-.3-3-.6-4.5-.9-.3-.1-.6-.2-.9-.3-.4-.2-.7-.6-.8-1.1-.1-1.5-.1-3.1.2-4.6.4-2.1.3-4.3.5-6.4-.2-2.4-.2-4.9-.9-7.3-1.4-5.1-4.5-8.6-9.5-10.4-2.3-.8-4.6-1.4-7-1.3-1,0-2,.2-2.9.6-.5.2-.9.6-1.1,1.1-.2.4-.3.9-.5,1.3-.8,2.6-1.5,5.1-2.1,7.8-1.5,7.4-3.4,14.6-5.6,21.8-.7,2.1-1.3,4.3-1.9,6.4-1,3.5-2.3,7-3.7,10.4-1.3,3.2-2.5,6.4-3.8,9.6-.5,1.2-.9,2.5-1.3,3.7-.3,1-.4,2.1-.3,3.2.1,1,.8,1.7,1.7,1.9.7.1,1.4.1,2-.2.9-.4,1.9-.7,2.8-1.1,3.6-1.6,6.9-3.6,10.3-5.7.8-.5,1.6-1,2.4-1.4,1.8-1.1,3.4-2.4,4.9-3.8.8-.8,1.6-1.6,2.5-2.4.6-.6,1.3-1.1,2-1.5.9-.5,1.8-.7,2.9-.5,1.7.3,3.2,1,4.6,2.1,1.1.8,2.1,1.7,3.2,2.7.8.7,1.5,1.5,2.3,2.3,1.7,1.7,3.3,3.4,5.2,4.9.5.4.4.9-.1,1.3-.2.2-.5.3-.8.5-1.5,1-3.1,2-4.6,3-2.6,1.7-5.4,3.3-8.1,4.8-3.9,2.1-7.9,4.2-11.9,6.1-7.8,3.8-15.7,7.3-23.9,10.3-4.4,1.6-8.8,3-13.4,4.1-2.1.5-4.2.8-6.3,1.1-2.2.2-4.3,0-6.4-.7-3.6-1.1-5.4-3.6-5.8-7.2-.2-1.6-.1-3.2.2-4.8.7-3.6,1.8-7,3.2-10.3,1.6-3.6,3.4-7,5.3-10.4,2.5-4.6,5.1-9.1,7.4-13.8,2.7-5.5,5.2-11.1,7-17,1.3-4.3,2.4-8.7,2.9-13.2.3-3,.7-5.9.6-8.9,0-2,0-4-.1-6-.2-3.4-.5-6.7-1.2-10-1-4.4-2.3-8.6-4-12.7-.8-1.9-5.6-5.1-5.9-7.1-.1-.8,1.7-1.7,2-2.5.3-.9,3.1-.1,3.9-.5s1.8-.6,2.7-.4c.8.2,1.6.4,2.4.6,2.5.8,4.9,1.9,7.2,3,2.4,1.2,4.8,2.3,7.2,3.6,4.6,2.4,9.4,4.2,14.3,5.6,5.5,1.6,11.1,3,16.6,4.5,2.4.7,4.9,1.3,7.3,2.1,1.9.6,3.8,1.3,5.6,2.1,2.9,1.3,5.4,3.2,7.8,5.3,1.8,1.7,3.2,3.8,4.2,6,1.6,3.2,2.4,6.6,2.9,10.1.5,3,.5,6,.4,9.1Z"/>
    <path class="st0" d="M387.2,292.8c-.1-3.4.5-6.5,1.2-9.6.8-3.2,1.9-6.3,3.4-9.3,1.6-3.2,3.2-6.4,5-9.6,1.4-2.4,2.7-4.8,3.9-7.3.6-1.1,1.1-2.3,1.7-3.5.6-1.3,1.2-2.7,2-3.9.4-.6.9-1.3,1.4-1.8.3-.4.8-.8,1.2-1.1,1.1-.8,2.6-.7,3.6.2.8.7,1.3,1.5,1.7,2.4.3.8.6,1.6.8,2.4,1.7,5.2,3.5,10.4,5.6,15.6,2,4.8,4.2,9.5,7.1,13.9,2.9,4.5,6.1,8.9,9.6,12.9,2.1,2.4,4.4,4.7,6.7,6.9,2.1,2,4.3,3.7,6.5,5.4,1.4,1.1,2.8,2.2,4.2,3.3,1.3,1,2.5,2.3,3.7,3.5,1.1,1.2,2,2.5,2.7,4,1.4,2.9,1.4,5.8.1,8.7-1,2.3-2.4,4.5-4,6.4-2.1,2.5-4.5,4.8-7.2,6.8-2.9,2.1-6,3.6-9.4,4.7-2,.6-4.1.9-6.1.9-4,0-7.7-1.3-10.8-4-1.4-1.3-2.8-2.6-4-4.2-1.5-2-3.1-4-4.5-6.1-1.5-2.1-3-4.1-4.7-6-1-1.1-2.1-2.2-3.3-3.2-2.3-2.1-4.7-4.1-7.1-6.2-2.5-2.1-4.7-4.6-6.6-7.3-1.9-2.8-3.1-6-3.8-9.3-.4-1.8-.7-3.8-.6-5.6Z"/>
    <path class="st0" d="M120.7,290.8c.2,3.6-.9,7-2.9,10.2-4.3,6.8-10.5,11-18.4,12.8-1.7.4-3.5.6-5.2.7-3.3.2-6.4-.3-9.4-1.5-3.3-1.4-5.7-3.8-7.2-7.1-.8-1.8-1.3-3.8-1.7-5.7-.5-2.3-1-4.7-1.4-7-.9-4.3-2.5-8.3-4.6-12.2-2.1-3.8-4.5-7.5-6.8-11.2-1.6-2.6-3.1-5.3-4.4-8.1-1.1-2.5-2-5.1-2.4-7.9-.3-2-.3-4,.3-5.9.8-2.8,2.5-5,5.1-6.6s2.7-1.4,4.2-1.9c1.4-.5,2.7-1,4.1-1.5,3.1-1.1,5.9-2.6,8.4-4.7.9-.8,1.9-1.6,2.8-2.3,1.8-1.5,3.7-2.7,5.8-3.6,1.6-.7,3.2-.8,4.9-.5,3.6.8,6.2,2.8,8.4,5.7,1,1.4,1.8,2.9,2.4,4.4.9,2.4,1.6,4.8,1.9,7.3.4,3.2.9,6.4,1.3,9.6.5,3.5,1.3,6.9,2.8,10.1.7,1.5,1.6,3,2.4,4.4.7,1.3,1.5,2.5,2.3,3.7,1.3,2.2,2.6,4.3,3.9,6.5,1.3,2.4,2.3,4.8,3,7.5.3,1.5.4,3,.4,4.8Z"/>
    <path class="st0" d="M438.1,379.9c1.9-.6,3.9-1.2,5.9-1.7,2.2-.6,4.4-1.3,6.6-1.6.5-.1,1-.2,1.5-.4,5.7-1.5,11.4-2.3,17.1-2.5,4.7-.1,9.2.2,13.3,1.4,2.6.8,4.9,1.9,7,3.3.6.4,1.1.9,1.5,1.4.9.9,1.8,1.9,2.7,2.9,2.6,2.4,4.3,5.3,5.9,8.1,1.7,3,2.6,6.4,3.3,9.8.7,3.7.1,7.6-1.7,11.6-1.9,4.1-5.1,7.5-9.7,10.2-2.1,1.2-4.2,2.3-6.5,3.2-2.3,1-4.6,1.8-7,2.4-6.3,1.7-12.5,2.6-18.9,2.6-3.1-.1-6-.3-8.9-.8-.7-.1-1.3-.3-2-.3-4.1-.4-8-1.3-11.8-2.4-3.9-1.1-7.6-2.4-11.1-3.8-3.9-1.6-7.7-3.4-11.4-5.2-3.2-1.5-6.3-3.2-9-5.1-2.2-1.6-4.1-3.4-5.6-5.4-1-1.4-1.6-2.9-1.6-4.6,0-3,1.5-5.7,4.4-8.2,1.1-.9,2.2-1.7,3.4-2.4,3.9-2.1,8-4,12.2-5.6.8-.3,1.7-.7,2.6-1,.8-.3,1.7-.7,2.6-1,1.2-.4,2.3-.9,3.4-1.3s2.1-.8,3.2-1.1c3-.8,5.8-1.6,8.6-2.5h0ZM477.3,408.4c-.2-.4-.6-1.3-1.1-2.1-1.5-2.4-4.2-4.2-7.6-5.5-3.2-1.2-7-1.9-11.1-2.3-2.5-.2-5.1-.1-8,.4-2.4.4-4.7.9-7.1,1.5-2.2.6-4.2,1.4-6.2,2.4-1.2.5-2.1,1.1-3.1,1.8-2,1.5-2.9,3-2.6,4.5.1,1,.5,1.8,1.2,2.6,1.1,1.2,2.4,2.2,4.1,3,4.2,2.1,9.4,3.4,15,4.1,1.5.2,2.9.3,4.4.4,3.1.2,6.1,0,9.5-.7,3-.6,5.7-1.5,8.4-2.7,2.5-1.1,3.9-2.5,4.2-4.2.5-1,.3-1.9,0-3.2Z"/>
    <path class="st0" d="M153.6,356.9c0,2.5-.3,4.9-1,7.3-1.7,5.6-5.4,9.5-10.9,11.7-2.3.9-4.7,1.4-7.2,1.4s-4.3-.2-6.4-.9c-.4-.1-.9-.3-1.3-.5-3.2-1.7-5.8-4-7.5-7.2-.6-1.2-1.2-2.5-1.8-3.7-.4-.8-.7-1.7-1-2.6-1.3-3.4-3.2-6.4-5.6-9.2-1.9-2.1-3.7-4.3-5.5-6.5-1.4-1.6-2.5-3.3-3.6-5-1.4-2.3-2.3-4.9-2.5-7.6,0-1.8.2-3.7.9-5.4,1-2.2,2.4-4.1,4.4-5.5,1.2-.9,2.5-1.8,3.9-2.5,1.1-.6,2.2-1.2,3.3-1.7,2.7-1.4,5.4-2.9,8-4.5,1.8-1.1,3.8-2,5.8-2.8,3-1.1,5.7-.5,8.3,1.1,1.2.7,2.2,1.6,3.2,2.7,1.4,1.5,2.7,3.1,3.8,4.9,4.4,7.2,7.9,14.7,10.3,22.8,1.2,3.8,1.9,7.7,2.2,11.7.3.7.2,1.4.2,2Z"/>
    <path class="st0" d="M638.4,299.7c-.3,2.3-1.1,4.2-2.1,6.2-1.9,3.9-4.5,7.4-7.5,10.6-1.6,1.6-3.3,3.3-5,5-5,4.8-9.9,9.5-15.1,14.1-4.3,3.8-8.9,7.2-13.8,10.3-2.7,1.7-5.4,3.4-8,5.2-2.5,1.7-4.8,3.5-6.9,5.6-1.6,1.6-3,3.3-3.8,5.3-.4.9-.8,1.8-1.2,2.7-.3.5-.7,1.1-1.1,1.6-1.3,1.4-3.2,1.5-4.9.3-.9-.7-1.5-1.5-1.9-2.4-.8-1.7-1-3.6-.8-5.4.3-3.3,1.8-6.2,4.3-8.8,1.6-1.6,3.3-3.2,5-4.6,2.5-2,5-4.1,7.6-6.1,4.8-3.6,9-7.6,12.7-12,3.9-4.6,7.8-9.3,11.6-14,2.6-3.1,4.8-6.4,6.6-9.9,1.1-2.1,1.9-4.2,2.3-6.4,0-.4,0-.9,0-1.3,0-.6-.3-1.1-.9-1.3-.8-.5-1.7-.7-2.5-1.1-3.4-1.4-6.9-2.8-10.1-4.5-2.4-1.3-4.5-2.8-6.4-4.4-1.2-.9-2.1-2-2.9-3.2-1.8-2.7-2.2-5.5-1.1-8.4.8-2.4,2.3-4.4,4.1-6.3,1-1,2-2,2.9-3,.4-.4.5-1,.2-1.5-.3-.6-.9-1-1.2-1.6-1.3-1.9-1.1-3.8.5-5.4.6-.6,1.3-1.1,2-1.6,1.1-.7,2.3-1.4,3.5-2.1,1.2-.7,2.4-1.4,3.5-2.1,1.2-.7,2.2-1.5,3-2.6,3.2-3.5,5.4-7.5,6.9-11.8.7-2.1,1.4-4.2,2.2-6.2.4-1.1,1-2.1,1.5-3.1,1.9-3.6,5.3-5.8,9.7-7.2,3.6-1.1,7.3-1.4,11.1-1.6.2,0,.4,0,.6.1,1.3.1,2.2,1.4,1.4,2.4-.5.6-1,1.1-1.5,1.6-1.7,1.5-3.2,3.1-4.6,4.9-1.7,2.1-2.8,4.4-3.7,6.8-.7,2.2-.7,4.5-.2,6.8.3,1.5.7,2.9,1.3,4.4.8,1.9,1.6,3.9,2.5,5.8,1,2.2,1.8,4.5,2.5,6.9.6,2,.9,4.2.8,6.2,0,1.1,0,2.1-.4,3.1-1,3.9-2.9,7.4-5.5,10.7-1.4,1.6-3,3-4.8,4.4-1.1.8-2.2.9-3.5.3-.9-.5-1.9-.8-2.7-1.4-1.2-.6-2.2-1.4-3.3-2.2-.7-.6-1.4-1.1-1.8-1.9-1.3-1.7-1.6-3.5-.7-5.3.3-.6.7-1.3,1-1.9.4-.6.8-1.2,1.2-1.8,1.3-1.8,2-3.8,2.4-5.9,0-.7.3-1.4.3-2.1s0-.4-.2-.4-.2.1-.2.1c-.2.4-.5.8-.7,1.2-1.5,3.1-3.7,6-6.2,8.6-.9.9-1.8,1.9-2.6,2.9-.4.5-.8,1-1.1,1.6-.5.9-.2,1.8.7,2.4.7.5,1.5,1,2.3,1.4,1.7.8,3.2,1.6,4.9,2.5,1.5.7,3,1.4,4.4,2.1,4,2.1,7.6,4.6,10.4,7.9,1.5,1.8,2.4,3.7,3,5.9.3,1.5.2,3.2,0,4.9Z"/>
    <path class="st0" d="M332.7,322.3v5.1c0,1.5-.1,2.9-.3,4.4-.2,1.7-.3,3.4-.5,5-.5,4.4-1.3,8.8-2.2,13.1-.6,2.8-1.3,5.7-1.9,8.5-.5,2.3-.8,4.7-1.4,7-.4,1.4-.8,2.8-1.2,4.2-.5,1.7-1.4,3-2.5,4.3-.5.6-1,.6-1.6.2-1.1-.9-2.1-2-2.8-3.3-.9-1.7-1.8-3.4-2.4-5.2-1.3-3.5-2.2-7.2-2.7-10.9-.5-3.3-.9-6.7-.9-10.1v-1.1c-.4-2.7-.3-5.5-.4-8.3,0-2.1,0-4.1-.3-6.2v-.7c0-3-.3-6-.6-8.9-.5-5.1-1.2-10.2-3.1-15-.6-1.6-1.1-3.3-1.7-5-1.3-3.8-2-7.7-2.6-11.6-.4-2.6-.4-5.2-.7-7.8-.1-.9,0-1.8,0-2.8.1-1.5.2-3.1.3-4.6.2-1.9.3-3.8.6-5.7.5-3.7,1.2-7.4,2.2-11,.7-2.4,1.5-4.8,2.5-7.2.3-.6.6-1.2,1-1.8.3-.5.9-.6,1.4-.3s.9.6,1.3,1,.8,1.1,1.2,1.7c.8,1.3,1.4,2.7,1.8,4.2s.8,2.9,1.2,4.4c.4,1.6.8,3.3,1.3,4.9,1.9,6.1,4.2,12,6.7,17.8,2.7,6.4,4.9,12.9,6.4,19.6.8,3.9,1.4,7.8,1.8,11.8.1,3.4.1,6.8.1,10.3Z"/>
    <path class="st0" d="M273.6,381.4c0-5.6,2-9.6,6-12.6,2.4-1.8,5-3.2,7.8-4.3,3.4-1.3,7-2.2,10.7-2.6,3.2-.4,6.1.5,8.4,2.9.9.9,1.7,2,2.3,3.2.4.8.8,1.7,1.1,2.5.9,2.4,1.6,4.8,2.2,7.2.7,3,1.4,6,2.2,8.9,1,3.9,2.3,7.6,3.7,11.4.8,2.2,1.4,4.4,1.8,6.6.2,1.4.2,2.7,0,4.1-.6,2.9-2.4,4.7-5.2,5.5-1.9.5-3.8.7-5.7.4-2.2-.3-4.4-.8-6.5-1.5-3.7-1.3-7.1-3.1-10.4-5.4-3.9-2.7-7.4-6-10.5-9.6-2.1-2.4-3.8-5-5.3-7.8-.8-1.6-1.4-3.2-1.9-4.9-.5-1.4-.8-3-.7-4Z"/>
    <path class="st0" d="M263.1,410c-.1,2.8-.2,5.5-.8,8.2-.2,1.1-.6,2.2-1.1,3.3-1,2-2.6,3.3-4.8,4-1.8.5-3.6.5-5.4-.1-1.1-.4-2.2-.7-3.2-1.3-1.4-.8-2.8-1.7-4.1-2.5-1.5-1-3-1.9-4.6-2.7-2.6-1.3-5.3-2.5-7.9-3.7-3.1-1.5-6.3-2.9-9.2-4.8-2.6-1.7-4.9-3.7-6.7-6.2-.4-.6-.8-1.3-1.1-2-1.8-4-1.3-7.8,1.6-11.2,1.3-1.5,2.9-2.7,4.6-3.7,1.5-.9,3.1-1.7,4.7-2.4,3.2-1.4,6.3-2.8,9.4-4.2,1.8-.8,3.7-1.4,5.6-2.1,2.9-1,5.7-.8,8.6.1,3,1,5.5,2.8,7.4,5.2,2.2,2.8,3.7,6,4.7,9.4.6,2.2,1,4.5,1.4,6.8.4,2.6.5,5.2.8,7.8.1.6.1,1.4.1,2.1Z"/>
    <path class="st0" d="M384.7,372.8c.1,2.1-.3,3.9-.6,5.7-1.5,7.6-3.6,15-6.8,22.1-.6,1.3-1.3,2.5-2,3.6-.4.6-.9,1.2-1.5,1.7-.5.6-1.2,1-2,1.2-1.6.4-3.1.7-4.8.5-1.6-.3-3.1-.7-4.6-1.3-3.1-1.4-5.9-3.2-8.3-5.6-4-4-7.1-8.6-9.3-13.8-1-2.3-1.7-4.8-1.8-7.3,0-.3-.1-.6-.1-.9-.4-2.4,0-4.7.5-7,.7-3,2.6-4.7,5.7-5.3,1.4-.3,2.7-.5,4.1-.5h8.5c2.8.1,5.7-.1,8.4-.7,1.2-.3,2.4-.5,3.6-.5,2.4,0,4.7.3,6.9,1.3,1,.5,1.8,1.1,2.6,1.9.9.9,1.4,2,1.4,3.3,0,.7,0,1.3,0,1.6Z"/>
    <path class="st0" d="M515.6,439.7c.4,3,0,6-.9,9-1.4,4.6-3.8,8.9-7.1,13-1.6,1.9-3.4,3.7-5.5,5.4-2.1,1.7-4.4,3.1-7.3,3.9-4.6,1.3-9,1.3-13-.8-2.7-1.4-5-3.2-6.9-5.2-1.7-1.8-3.3-3.8-4.5-5.9-.5-.8-.9-1.6-1.2-2.4-1.1-2.8-.4-5.4,2.3-7.8.9-.8,1.9-1.5,3-2.2,2.6-1.6,5.3-3,8.1-4.2,4.9-2.2,9.5-4.7,13.8-7.4,1.8-1.1,3.6-2.1,5.5-2.9,1.4-.6,2.8-1.1,4.4-1.3,2.8-.3,5,.3,6.6,2,1.1,1.2,1.8,2.6,2.1,4.1.3.9.4,1.8.6,2.7Z"/>
    <path class="st0" d="M216.5,276c0-.7.1-1.4.1-2.1s.6-.7,1.1-.5c.8.4,1.4.9,2,1.5,2.2,2.1,4.5,4.2,6.6,6.4,4.9,5.1,9.2,10.7,12.9,16.7,4.1,6.6,6.8,13.7,8.3,21.3.8,3.9,1.3,7.9,1.5,11.9v.5c.5,2.8.2,5.7-.1,8.5-.1,1.2-.4,2.4-.6,3.6-.1.4-.2.7-.4,1.1-.5,1.1-1.6,1.5-2.6.7-.9-.7-1.6-1.4-2.2-2.3-.8-1.1-1.5-2.3-2.2-3.5-.8-1.4-1.6-2.8-2.3-4.2-1.1-2-2.3-4-3.6-5.9-1.6-2.2-3.3-4.4-4.9-6.7-1.4-1.9-2.7-3.9-4-5.9-1.6-2.5-2.8-5.1-3.6-7.9-1.3-4.3-2.3-8.8-3.1-13.2-.4-2-.8-4.1-1.1-6.1-.5-3.2-1-6.4-1.3-9.6-.2-1.4-.5-2.8-.5-4.3Z"/>
  </g>
  <path class="st0" d="M323.4,425.5c-1.1.5-1.8,1.3-2.5,2.1-2,2.3-3.5,5-5.3,7.5-.2.3-.4.6-.8.5-.5-.2-.2-.6-.2-.8.3-2.9,1.3-5.6,2.1-8.4.4-1.3.7-2.5,1.1-3.8.6-1.8,1.2-3.6,1.9-5.3,1.8-4.4,3.8-8.7,5.6-13.1,1.2-3,2.6-6,4-8.9,1.3-2.9,2.6-5.7,3.7-8.7,1.3-3.7,2.8-7.3,3.7-11.2.1-.5.1-1.1.4-1.6.1-.2.1-.5.4-.4.3,0,.3.3.4.5.1.8-.1,1.7-.1,2.5v8.9c.1,3.2.2,6.4.4,9.5.2,2.9.5,5.8,1,8.7.4,2.3,1.2,4.5,2.1,6.7.5,1.2,1,2.5,1.4,3.8.5,1.6,1.7,2.4,3.2,3,1.3.5,2.4,1.3,3.6,2.1,2.3,1.4,4.3,3.1,6.3,4.9,1.3,1.2,2.4,2.4,3.6,3.7,1.1,1.3,2.2,2.7,3.3,4,2,2.3,3.6,4.8,5.2,7.3,1.1,1.8,2.1,3.7,3.1,5.6.9,1.8,1.7,3.5,2.5,5.3.7,1.5,1.3,3.2,1.9,4.7.6,1.6,1.2,3.3,1.7,5,.6,1.9,1.2,3.8,1.6,5.7.7,3.1,1.4,6.2,1.7,9.3.3,3.1.4,6.1-.1,9.2-.6,3-1.4,5.9-3,8.6-.9,1.5-2,2.6-3.4,3.6-1.6,1.1-3.2,2-5,2.5-3.1.7-6.1.8-9.2,0-3-.8-5.6-2.2-8-4-2-1.5-4-3.2-5.9-4.9-2.5-2.2-4.8-4.5-7-7-1.2-1.4-2.5-2.8-3.7-4.2-1.9-2.2-3.3-4.7-4.9-7-1.6-2.2-2.5-4.8-3.6-7.2-1.1-2.2-1.8-4.6-2.6-6.9-.5-1.4-.9-2.9-1.2-4.4-.4-1.8-.8-3.6-1.1-5.4-.5-3.1-.7-6.3-.6-9.5,0-1.7.1-3.3.4-5,.3-1.8.8-3.5,1.5-5.2-.1-.7.2-1.4.4-2.3ZM348.9,472.4c1.1,1.6,1.9,2.8,2.9,3.9,1.1,1.2,2.1,2.3,3.3,3.4,1.4,1.4,2.9,2.5,4.6,3.5s3.5,1.9,5.5,2.2c.6.1.9,0,.9-.7.1-1.3.1-2.5,0-3.8-.1-3-.5-6-1.1-8.9-.3-1.7-.8-3.4-1.4-5-.8-2.4-1.5-4.8-2.4-7.2-1-2.8-2.2-5.5-3.4-8.2-1-2.3-2.2-4.5-3.6-6.6-2.3-3.5-4.8-7-7.7-10.1-1.7-1.8-3.6-3.5-5.4-5.1-1.5-1.3-3.1-2.4-4.7-3.7-.2-.1-.4-.3-.6-.2-.2.1-.2.4-.2.6,0,.9,0,1.9.1,2.8.1,1.6.4,3.3.5,4.9.3,3.2.9,6.3,1.5,9.4.4,1.7.8,3.4,1.2,5.1.3,1.1.6,2.3,1,3.4.5,1.6,1.1,3.3,1.6,4.9.5,1.8,1.3,3.5,2,5.3.7,1.7,1.5,3.3,2.4,5,1.1,1.7,2,3.7,3,5.1Z"/>
  <path class="st0" d="M593.4,377.7c-.5.4-1,.7-1.5,1.1-.5,0-1.1,0-1.6.2-8.5,1.1-16.8,5.1-24.6,9.7-5.1,3-10,6.3-14.9,9.6-2.8,1.9-5.4,4-8.1,6-.2.2-.7.3-1.1.5,0-.2.2-.6.5-.9,5.1-6,10.1-12,15.2-18,.4-.5.6-1.5.3-1.8-3.1-3.4-6.4-6.8-9.6-10.1-3.7-3.9-7.3-7.8-10.8-11.8-3.3-3.6-6.4-7.3-9.6-10.8-.1-.1-.3-.1-.5-.2v.6c1.1,2.9,2.1,5.6,3.1,8.5,3.1,8.9,7.3,17.2,13.8,24.1,0,.2.3.5.4.6-.4.1-.6.3-1,.4-6,1.6-10.9.6-15.4-1.1-5.9-2.3-10.7-5.9-14.4-10.3-.1-.1-.4-.2-.5-.3,0,.2-.1.5,0,.6,1,2.3,2.2,4.6,3.4,6.8,2.2,4.2,4.5,8.2,6.9,12.2,2.3,4.1,5.3,7.7,10.4,9.4.3.1.3.7.2,1.1-1.1,1.5-2.3,2.8-3.4,4.2-4.1,5-9.9,7-12.2,15.1-.3-.5-.6-.8-.9-1.3.1-.5.4-.8.3-1.2-.6-4.7-.9-9.5-2.1-13.9-1.9-6.3-4.2-12.5-6.9-18.5-2.2-5-5-9.9-7.9-14.5-2.8-4.6-6.1-9-11.1-12-.6-.3-.7-1.2,0-1.7,1.9-2.7,4.1-5.4,6.1-8,1.1-1.5,2.4-2.8,3.4-4.3,1.2-1.4,1.6-1.4,3-.6,2.7,3.9,5.8,7.7,9.1,11.2,3.1,3.3,6.7,6.2,10.2,9.2.1.1.4.1.6.1,0-.2.1-.4.1-.6-1.3-3.9-2.6-8-4.1-11.8-2.2-5.4-4.6-10.5-7.1-15.7-1-2.3-2.1-4.5-4.1-6-1.6-1.2-1.6-2.5-.4-4.2,4.3-6.5,9-12.8,13.2-19.3,2.6-4,4.6-8.3,6.9-12.4.2-.1.4-.2.6-.5.1.4.3.8.3,1.2-.6,4-1.4,8-2.1,11.9-.5,3.4-1.3,6.9-1.1,10,.2,2.5,1.5,4.7,2.7,6.8,1.8,3.4,3.8,6.9,6.1,9.9,2.8,3.9,6,7.5,9.3,11.2,2.8,3.2,5.6,6.5,9,9.3,4.6,3.6,9.4,7.1,14.4,10.2,5.4,3.4,12,4.6,20.3,2.3,5.4-1.6,11-3.6,16.4-5.4,0,.1.3.2.3.5-.5.7-1.1,1.5-1.6,2.1-3,3.6-5.4,7.2-7.9,10.6Z"/>
  <path class="st0" d="M178.6,374.8c8.9,2.6,25.9,14.3,26.4,43.7,0,1.8-1.1,3.5-2.8,3.8-7.5,1.5-20.3-7.7-25.1-4.2-13.4,9.8-4.8,18.5.1,31.9,5.1,14.1,13.6,30.3,23,41.7,5.5,6.5,8.1,18.4,15.1,23.4h0c4.5,5.7,7.4,8.1,9.4,10.9.9,1.3,5.8,4.9,5,4.5l2.1-5.5h0c.7.4,2.3,3.7,2.8,4.4,4.5,6.7,10.2,14.1,19.5,1.2-.7,8.2-35-29.7-30.6-52.7.3-1.4,2-1.7,2.6-.5l10.3,18.2h0c.7,1.4,1.8,2.5,3.1,3.2,27.9,15.1,29.7,21.3,45.1,16.3,2.4,0,6.1,4.1,4.3,8.3-4.2,7.8-6.9-1.8-19.3,22.2-.3.5-1,.4-1.2.9-12.2,33.4-28.4,15.7-49.7,8.4-6-2.1-8.2-6.3-14.4-10.6-7.6-5.3-8.8-9.9-15.2-15.4-6.9-5.9-12.2-20.2-17.1-28.4-11.1-18.1-14.8-34.5-24-53.1-4.5-9-7.9-7.2-10.8,6.4-2,9.2,1.2,14.7-14.8,20.5-1.1.4-2.2-.3-2.6-1.5h0c.3.1-.3-.1,0,0-.3-16.4-10.8-35.9,4.1-48.6,16.2-13.8,35.8-31.1,51.6-45.5.4-.4.8-.7,1.4-.7,1.6.1-.6-3.7,1.7-3.2Z"/>
  <path class="st0" d="M604.7,296.1c-.4.4.8.4,1.6,1.4-.4.2.8,1.8.4,2-1,4.2-5.3,7.2-10.5,13.2-3.7,3.8-8.9,11.1-15.7,17-3.6,3.5-9.5,0-11.4,2.3-.2.3-.5.5-.8.7,0-.3.2-.5.4-.8,4-5.8,7.9-11.5,11.9-17.3.3-.5.5-1.2.4-1.3-1.7-1-3.5-2-5.3-3-2-1.1-4-2.3-6-3.5-1.8-1.1-3.5-2.3-5.3-3.4h-.3c0,.1,0,.3,0,.4.4,1.4.8,2.8,1.2,4.3,1.1,4.6,3.1,8.3,6.7,10.3,0,.1,0,.2.2.3-.2.2-.5.4-.7.6-4.1,3.3-7.3,4.5-10,5.1-3.7.7-6.5.2-8.5-1.3h-.3c0,.1,0,.3,0,.4.5,1.1,1,2.1,1.5,3.1,1.1,1.8,2.2,3.5,3.3,5.3s2.7,3,5.9,2.2c0,0,0,.4,0,.6-.8,1.3-1.8,2.6-2.7,3.9-3.2,4.7-6.3,9.4-9.5,14.2-.2-.1-.3-.3-.5-.4,0-.3.3-.6.3-.8,0-2.8.4-5.8,0-8.1-.6-3.4-1.5-6.4-2.7-9.3-1-2.4-2.3-4.4-3.8-6.3-1.4-1.9-.7-.5-2.9-2.7-.2,0-1.6-2-1.4-2.4,1.6-2.5,1.5-4.4,3.1-6.9.9-1.3,1.9-2.7,2.6-4,1.1-1.8,1.4-2.1,2-1.5,1.4,1.5,3,2.8,4.9,3.8,1.7,1,3.8,1.5,5.7,2.2,0,0,.2-.1.4-.1,0-.1,0-.3,0-.4-.5-2-.9-4.2-1.5-6.1-.9-2.6-2-5-3.1-7.4-.5-1-1-2.1-2.1-2.3-.9-.2-.7-1,.2-2.6,3.5-5.8,7.2-11.6,10.7-17.3,2.1-3.6,3.9-7,5.8-10.5,0-.2.3-.3.4-.5,0,.2,0,.4,0,.7-.8,2.8-1.7,5.6-2.5,8.4-.7,2.3-1.6,4.9-1.8,6.8,0,1.5.5,2.4,1.1,3.4.9,1.5,1.8,3,3,4.1,1.5,1.4,3.3,2.6,5,3.7,1.6,1,3.1,2.1,5,2.6,2.6.7,5.5,1,8.5,1.2,3.2.1,7.5-1.5,13.2-6.1"/>
</svg>